# xmcd
#
# Track frame offsets: 
#        150
#        26953
#        41828
#        55838
#        84583
#        119155
#        132393
#        145045
#        163395
#
# Disc length: 2407 seconds
#
# Revision: 4
# Processed by: cddbd v1.5.2PL0 Copyright (c) Steve Scherf et al.
# Submitted via: ExactAudioCopyFreeDBPlugin 1.0
#
DISCID=89096509
DTITLE=Stevie Ray Vaughan - In the Beginning
DYEAR=1992
DGENRE=Blues
TTITLE0=In the Open
TTITLE1=Slide Thing
TTITLE2=They Call Me Guitar Hurricane
TTITLE3=All Your Love I Miss Loving
TTITLE4=Tin Pan Alley
TTITLE5=Love Struck Baby
TTITLE6=Tell Me
TTITLE7=Shake for Me
TTITLE8=Live Another Day
EXTD=YEAR: 1980
EXTT0=
EXTT1=
EXTT2=
EXTT3=
EXTT4=
EXTT5=
EXTT6=
EXTT7=
EXTT8=
PLAYORDER=
